<mxfile host="Electron" modified="2023-10-07T01:23:10.165Z" agent="Mozilla/5.0 (Windows NT 10.0; Win64; x64) AppleWebKit/537.36 (KHTML, like Gecko) draw.io/22.0.2 Chrome/114.0.5735.289 Electron/25.8.4 Safari/537.36" etag="zt-CnAEqu02jmUu3ICCI" version="22.0.2" type="device">
  <diagram name="Page-1" id="RcluT7PwSp8nkoUz6Cnb">
    <mxGraphModel dx="1941" dy="688" grid="1" gridSize="10" guides="1" tooltips="1" connect="1" arrows="1" fold="1" page="1" pageScale="1" pageWidth="850" pageHeight="1100" math="0" shadow="0">
      <root>
        <mxCell id="0" />
        <mxCell id="1" parent="0" />
        <mxCell id="moOu8SUinzSFJMRD1ueo-30" value="(1,N)" style="edgeStyle=orthogonalEdgeStyle;rounded=0;orthogonalLoop=1;jettySize=auto;html=1;" parent="1" source="moOu8SUinzSFJMRD1ueo-1" target="moOu8SUinzSFJMRD1ueo-29" edge="1">
          <mxGeometry relative="1" as="geometry">
            <Array as="points">
              <mxPoint x="-165" y="230" />
              <mxPoint x="-165" y="220" />
            </Array>
          </mxGeometry>
        </mxCell>
        <mxCell id="moOu8SUinzSFJMRD1ueo-1" value="KHACH HANG" style="whiteSpace=wrap;html=1;" parent="1" vertex="1">
          <mxGeometry x="-300" y="190" width="100" height="50" as="geometry" />
        </mxCell>
        <mxCell id="moOu8SUinzSFJMRD1ueo-2" value="HOP DONG VAY" style="whiteSpace=wrap;html=1;" parent="1" vertex="1">
          <mxGeometry x="70" y="170" width="120" height="60" as="geometry" />
        </mxCell>
        <mxCell id="moOu8SUinzSFJMRD1ueo-39" value="(1,n)" style="edgeStyle=orthogonalEdgeStyle;rounded=0;orthogonalLoop=1;jettySize=auto;html=1;" parent="1" source="moOu8SUinzSFJMRD1ueo-6" target="moOu8SUinzSFJMRD1ueo-36" edge="1">
          <mxGeometry relative="1" as="geometry" />
        </mxCell>
        <mxCell id="moOu8SUinzSFJMRD1ueo-6" value="NHANVIEN" style="whiteSpace=wrap;html=1;" parent="1" vertex="1">
          <mxGeometry x="280" y="480" width="120" height="60" as="geometry" />
        </mxCell>
        <mxCell id="moOu8SUinzSFJMRD1ueo-12" style="edgeStyle=orthogonalEdgeStyle;rounded=0;orthogonalLoop=1;jettySize=auto;html=1;entryX=0.383;entryY=1.133;entryDx=0;entryDy=0;entryPerimeter=0;" parent="1" source="moOu8SUinzSFJMRD1ueo-8" edge="1">
          <mxGeometry relative="1" as="geometry">
            <mxPoint x="-54.039999999999964" y="593.9899999999998" as="targetPoint" />
          </mxGeometry>
        </mxCell>
        <mxCell id="moOu8SUinzSFJMRD1ueo-8" value="&lt;u&gt;&lt;b&gt;MAGOI&lt;/b&gt;&lt;/u&gt;" style="ellipse;whiteSpace=wrap;html=1;" parent="1" vertex="1">
          <mxGeometry x="130" y="645" width="120" height="30" as="geometry" />
        </mxCell>
        <mxCell id="moOu8SUinzSFJMRD1ueo-52" style="edgeStyle=orthogonalEdgeStyle;rounded=0;orthogonalLoop=1;jettySize=auto;html=1;entryX=0.825;entryY=1.1;entryDx=0;entryDy=0;entryPerimeter=0;" parent="1" source="moOu8SUinzSFJMRD1ueo-9" edge="1">
          <mxGeometry relative="1" as="geometry">
            <mxPoint x="-1" y="593" as="targetPoint" />
          </mxGeometry>
        </mxCell>
        <mxCell id="moOu8SUinzSFJMRD1ueo-9" value="TENGOI" style="ellipse;whiteSpace=wrap;html=1;" parent="1" vertex="1">
          <mxGeometry x="130" y="740" width="120" height="30" as="geometry" />
        </mxCell>
        <mxCell id="moOu8SUinzSFJMRD1ueo-10" value="LAISUAT" style="ellipse;whiteSpace=wrap;html=1;" parent="1" vertex="1">
          <mxGeometry x="140" y="788" width="120" height="30" as="geometry" />
        </mxCell>
        <mxCell id="moOu8SUinzSFJMRD1ueo-23" value="" style="edgeStyle=orthogonalEdgeStyle;rounded=0;orthogonalLoop=1;jettySize=auto;html=1;" parent="1" source="moOu8SUinzSFJMRD1ueo-15" target="moOu8SUinzSFJMRD1ueo-1" edge="1">
          <mxGeometry relative="1" as="geometry">
            <Array as="points">
              <mxPoint x="-480" y="270" />
              <mxPoint x="-300" y="270" />
            </Array>
          </mxGeometry>
        </mxCell>
        <mxCell id="moOu8SUinzSFJMRD1ueo-15" value="NGHE NGHIEP" style="ellipse;whiteSpace=wrap;html=1;" parent="1" vertex="1">
          <mxGeometry x="-540" y="220" width="120" height="30" as="geometry" />
        </mxCell>
        <mxCell id="moOu8SUinzSFJMRD1ueo-22" style="edgeStyle=orthogonalEdgeStyle;rounded=0;orthogonalLoop=1;jettySize=auto;html=1;entryX=0;entryY=0.25;entryDx=0;entryDy=0;" parent="1" source="moOu8SUinzSFJMRD1ueo-16" target="moOu8SUinzSFJMRD1ueo-1" edge="1">
          <mxGeometry relative="1" as="geometry" />
        </mxCell>
        <mxCell id="moOu8SUinzSFJMRD1ueo-16" value="&lt;u&gt;MAKH&lt;/u&gt;" style="ellipse;whiteSpace=wrap;html=1;" parent="1" vertex="1">
          <mxGeometry x="-550" y="160" width="120" height="30" as="geometry" />
        </mxCell>
        <mxCell id="moOu8SUinzSFJMRD1ueo-27" style="edgeStyle=orthogonalEdgeStyle;rounded=0;orthogonalLoop=1;jettySize=auto;html=1;" parent="1" source="moOu8SUinzSFJMRD1ueo-17" target="moOu8SUinzSFJMRD1ueo-1" edge="1">
          <mxGeometry relative="1" as="geometry" />
        </mxCell>
        <mxCell id="moOu8SUinzSFJMRD1ueo-17" value="THU NHAP" style="ellipse;whiteSpace=wrap;html=1;" parent="1" vertex="1">
          <mxGeometry x="-550" y="280" width="120" height="30" as="geometry" />
        </mxCell>
        <mxCell id="moOu8SUinzSFJMRD1ueo-25" style="edgeStyle=orthogonalEdgeStyle;rounded=0;orthogonalLoop=1;jettySize=auto;html=1;entryX=-0.017;entryY=0.65;entryDx=0;entryDy=0;entryPerimeter=0;" parent="1" source="moOu8SUinzSFJMRD1ueo-18" target="moOu8SUinzSFJMRD1ueo-1" edge="1">
          <mxGeometry relative="1" as="geometry">
            <mxPoint x="-330" y="310" as="targetPoint" />
            <Array as="points">
              <mxPoint x="-329" y="345" />
              <mxPoint x="-329" y="229" />
            </Array>
          </mxGeometry>
        </mxCell>
        <mxCell id="moOu8SUinzSFJMRD1ueo-18" value="CHI TIEU" style="ellipse;whiteSpace=wrap;html=1;" parent="1" vertex="1">
          <mxGeometry x="-540" y="330" width="120" height="30" as="geometry" />
        </mxCell>
        <mxCell id="moOu8SUinzSFJMRD1ueo-31" value="(1,1)" style="edgeStyle=orthogonalEdgeStyle;rounded=0;orthogonalLoop=1;jettySize=auto;html=1;entryX=0.017;entryY=0.617;entryDx=0;entryDy=0;entryPerimeter=0;" parent="1" source="moOu8SUinzSFJMRD1ueo-29" target="moOu8SUinzSFJMRD1ueo-2" edge="1">
          <mxGeometry relative="1" as="geometry" />
        </mxCell>
        <mxCell id="moOu8SUinzSFJMRD1ueo-29" value="VAY" style="rhombus;whiteSpace=wrap;html=1;" parent="1" vertex="1">
          <mxGeometry x="-130" y="190" width="125" height="60" as="geometry" />
        </mxCell>
        <mxCell id="OIFnNaqnoantYKEcp4GL-23" style="edgeStyle=orthogonalEdgeStyle;rounded=0;orthogonalLoop=1;jettySize=auto;html=1;exitX=0.5;exitY=0;exitDx=0;exitDy=0;entryX=0;entryY=1;entryDx=0;entryDy=0;" edge="1" parent="1" source="moOu8SUinzSFJMRD1ueo-32" target="moOu8SUinzSFJMRD1ueo-29">
          <mxGeometry relative="1" as="geometry" />
        </mxCell>
        <mxCell id="moOu8SUinzSFJMRD1ueo-32" value="MUC DICH" style="ellipse;whiteSpace=wrap;html=1;" parent="1" vertex="1">
          <mxGeometry x="-230" y="280" width="120" height="30" as="geometry" />
        </mxCell>
        <mxCell id="xY4OVWo1dw9h_iWOuXFk-34" style="edgeStyle=orthogonalEdgeStyle;rounded=0;orthogonalLoop=1;jettySize=auto;html=1;exitX=0;exitY=0.5;exitDx=0;exitDy=0;entryX=1;entryY=0.5;entryDx=0;entryDy=0;" parent="1" source="moOu8SUinzSFJMRD1ueo-34" target="moOu8SUinzSFJMRD1ueo-2" edge="1">
          <mxGeometry relative="1" as="geometry" />
        </mxCell>
        <mxCell id="moOu8SUinzSFJMRD1ueo-34" value="&lt;u&gt;&lt;b&gt;MAHD&lt;/b&gt;&lt;/u&gt;" style="ellipse;whiteSpace=wrap;html=1;" parent="1" vertex="1">
          <mxGeometry x="220" y="185" width="120" height="30" as="geometry" />
        </mxCell>
        <mxCell id="moOu8SUinzSFJMRD1ueo-49" value="(1,1)" style="edgeStyle=orthogonalEdgeStyle;rounded=0;orthogonalLoop=1;jettySize=auto;html=1;exitX=0.5;exitY=0;exitDx=0;exitDy=0;entryX=0.517;entryY=1.117;entryDx=0;entryDy=0;entryPerimeter=0;" parent="1" source="moOu8SUinzSFJMRD1ueo-36" target="moOu8SUinzSFJMRD1ueo-2" edge="1">
          <mxGeometry relative="1" as="geometry" />
        </mxCell>
        <mxCell id="moOu8SUinzSFJMRD1ueo-36" value="TU VAN" style="rhombus;whiteSpace=wrap;html=1;" parent="1" vertex="1">
          <mxGeometry x="70" y="490" width="120" height="40" as="geometry" />
        </mxCell>
        <mxCell id="xY4OVWo1dw9h_iWOuXFk-5" style="edgeStyle=orthogonalEdgeStyle;rounded=0;orthogonalLoop=1;jettySize=auto;html=1;exitX=0;exitY=0.5;exitDx=0;exitDy=0;entryX=1;entryY=1;entryDx=0;entryDy=0;" parent="1" source="moOu8SUinzSFJMRD1ueo-41" edge="1">
          <mxGeometry relative="1" as="geometry">
            <mxPoint x="3.448275862069295" y="585.344827586207" as="targetPoint" />
          </mxGeometry>
        </mxCell>
        <mxCell id="moOu8SUinzSFJMRD1ueo-41" value="HINH THUC BAO DAM" style="ellipse;whiteSpace=wrap;html=1;" parent="1" vertex="1">
          <mxGeometry x="130" y="695" width="120" height="30" as="geometry" />
        </mxCell>
        <mxCell id="OIFnNaqnoantYKEcp4GL-24" style="edgeStyle=orthogonalEdgeStyle;rounded=0;orthogonalLoop=1;jettySize=auto;html=1;exitX=1;exitY=0.5;exitDx=0;exitDy=0;entryX=0.5;entryY=1;entryDx=0;entryDy=0;" edge="1" parent="1" source="moOu8SUinzSFJMRD1ueo-53" target="moOu8SUinzSFJMRD1ueo-29">
          <mxGeometry relative="1" as="geometry" />
        </mxCell>
        <mxCell id="moOu8SUinzSFJMRD1ueo-53" value="SO TIEN" style="ellipse;whiteSpace=wrap;html=1;" parent="1" vertex="1">
          <mxGeometry x="-230" y="330" width="120" height="30" as="geometry" />
        </mxCell>
        <mxCell id="moOu8SUinzSFJMRD1ueo-64" value="(1, 1)" style="edgeStyle=orthogonalEdgeStyle;rounded=0;orthogonalLoop=1;jettySize=auto;html=1;exitX=1;exitY=0.5;exitDx=0;exitDy=0;entryX=0.056;entryY=0.617;entryDx=0;entryDy=0;entryPerimeter=0;" parent="1" source="moOu8SUinzSFJMRD1ueo-57" target="moOu8SUinzSFJMRD1ueo-62" edge="1">
          <mxGeometry relative="1" as="geometry" />
        </mxCell>
        <mxCell id="moOu8SUinzSFJMRD1ueo-57" value="THONG TIN THANH TOAN" style="rounded=0;whiteSpace=wrap;html=1;" parent="1" vertex="1">
          <mxGeometry x="-320" y="450" width="120" height="60" as="geometry" />
        </mxCell>
        <mxCell id="moOu8SUinzSFJMRD1ueo-65" value="(1, N)" style="edgeStyle=orthogonalEdgeStyle;rounded=0;orthogonalLoop=1;jettySize=auto;html=1;exitX=1;exitY=0.5;exitDx=0;exitDy=0;" parent="1" source="moOu8SUinzSFJMRD1ueo-62" edge="1">
          <mxGeometry relative="1" as="geometry">
            <mxPoint x="70" y="240" as="targetPoint" />
          </mxGeometry>
        </mxCell>
        <mxCell id="moOu8SUinzSFJMRD1ueo-62" value="THANH TOAN" style="rhombus;whiteSpace=wrap;html=1;" parent="1" vertex="1">
          <mxGeometry x="-150" y="430" width="120" height="60" as="geometry" />
        </mxCell>
        <mxCell id="7ujtb6qxAVKzP9pwFhHG-5" style="edgeStyle=orthogonalEdgeStyle;rounded=0;orthogonalLoop=1;jettySize=auto;html=1;exitX=1;exitY=0.5;exitDx=0;exitDy=0;entryX=0;entryY=1;entryDx=0;entryDy=0;" parent="1" source="moOu8SUinzSFJMRD1ueo-70" target="moOu8SUinzSFJMRD1ueo-57" edge="1">
          <mxGeometry relative="1" as="geometry" />
        </mxCell>
        <mxCell id="moOu8SUinzSFJMRD1ueo-70" value="SoTienThanhToan" style="ellipse;whiteSpace=wrap;html=1;" parent="1" vertex="1">
          <mxGeometry x="-580" y="570" width="120" height="30" as="geometry" />
        </mxCell>
        <mxCell id="7ujtb6qxAVKzP9pwFhHG-1" style="edgeStyle=orthogonalEdgeStyle;rounded=0;orthogonalLoop=1;jettySize=auto;html=1;exitX=1;exitY=0.5;exitDx=0;exitDy=0;" parent="1" source="moOu8SUinzSFJMRD1ueo-74" edge="1">
          <mxGeometry relative="1" as="geometry">
            <mxPoint x="-320" y="460" as="targetPoint" />
          </mxGeometry>
        </mxCell>
        <mxCell id="moOu8SUinzSFJMRD1ueo-74" value="&lt;u&gt;MATHANHTOAN&lt;/u&gt;" style="ellipse;whiteSpace=wrap;html=1;" parent="1" vertex="1">
          <mxGeometry x="-580" y="445" width="120" height="30" as="geometry" />
        </mxCell>
        <mxCell id="OIFnNaqnoantYKEcp4GL-20" style="edgeStyle=orthogonalEdgeStyle;rounded=0;orthogonalLoop=1;jettySize=auto;html=1;exitX=0;exitY=0.5;exitDx=0;exitDy=0;" edge="1" parent="1" source="moOu8SUinzSFJMRD1ueo-75" target="moOu8SUinzSFJMRD1ueo-57">
          <mxGeometry relative="1" as="geometry" />
        </mxCell>
        <mxCell id="moOu8SUinzSFJMRD1ueo-75" value="NgayThanhToan" style="ellipse;whiteSpace=wrap;html=1;" parent="1" vertex="1">
          <mxGeometry x="-220" y="610" width="120" height="30" as="geometry" />
        </mxCell>
        <mxCell id="7ujtb6qxAVKzP9pwFhHG-6" style="edgeStyle=orthogonalEdgeStyle;rounded=0;orthogonalLoop=1;jettySize=auto;html=1;exitX=1;exitY=0.5;exitDx=0;exitDy=0;entryX=0.25;entryY=1;entryDx=0;entryDy=0;" parent="1" source="moOu8SUinzSFJMRD1ueo-79" target="moOu8SUinzSFJMRD1ueo-57" edge="1">
          <mxGeometry relative="1" as="geometry" />
        </mxCell>
        <mxCell id="moOu8SUinzSFJMRD1ueo-79" value="HIENTRANGTAISAN" style="ellipse;whiteSpace=wrap;html=1;" parent="1" vertex="1">
          <mxGeometry x="-580" y="640" width="120" height="30" as="geometry" />
        </mxCell>
        <mxCell id="moOu8SUinzSFJMRD1ueo-82" value="TINH HINH TAI CHINH" style="ellipse;whiteSpace=wrap;html=1;" parent="1" vertex="1">
          <mxGeometry x="-580" y="500" width="120" height="30" as="geometry" />
        </mxCell>
        <mxCell id="7ujtb6qxAVKzP9pwFhHG-7" style="edgeStyle=orthogonalEdgeStyle;rounded=0;orthogonalLoop=1;jettySize=auto;html=1;exitX=0;exitY=0.5;exitDx=0;exitDy=0;entryX=0.04;entryY=0.814;entryDx=0;entryDy=0;entryPerimeter=0;" parent="1" source="moOu8SUinzSFJMRD1ueo-10" edge="1">
          <mxGeometry relative="1" as="geometry">
            <mxPoint x="-95.19999999999982" y="584.4200000000001" as="targetPoint" />
          </mxGeometry>
        </mxCell>
        <mxCell id="51BZH1mfJ3p3SiwEqMql-1" value="NoXau" style="rounded=0;whiteSpace=wrap;html=1;" parent="1" vertex="1">
          <mxGeometry x="-440" y="840" width="120" height="60" as="geometry" />
        </mxCell>
        <mxCell id="51BZH1mfJ3p3SiwEqMql-2" value="MaNoXau" style="ellipse;whiteSpace=wrap;html=1;fontStyle=5" parent="1" vertex="1">
          <mxGeometry x="-610" y="825" width="120" height="40" as="geometry" />
        </mxCell>
        <mxCell id="51BZH1mfJ3p3SiwEqMql-8" style="edgeStyle=orthogonalEdgeStyle;rounded=0;orthogonalLoop=1;jettySize=auto;html=1;exitX=1;exitY=0.5;exitDx=0;exitDy=0;entryX=0;entryY=0.75;entryDx=0;entryDy=0;" parent="1" source="51BZH1mfJ3p3SiwEqMql-5" target="51BZH1mfJ3p3SiwEqMql-1" edge="1">
          <mxGeometry relative="1" as="geometry" />
        </mxCell>
        <mxCell id="51BZH1mfJ3p3SiwEqMql-5" value="SoTien" style="ellipse;whiteSpace=wrap;html=1;" parent="1" vertex="1">
          <mxGeometry x="-610" y="890" width="120" height="30" as="geometry" />
        </mxCell>
        <mxCell id="51BZH1mfJ3p3SiwEqMql-6" style="edgeStyle=orthogonalEdgeStyle;rounded=0;orthogonalLoop=1;jettySize=auto;html=1;exitX=1;exitY=0.5;exitDx=0;exitDy=0;entryX=-0.033;entryY=0.117;entryDx=0;entryDy=0;entryPerimeter=0;" parent="1" source="51BZH1mfJ3p3SiwEqMql-2" target="51BZH1mfJ3p3SiwEqMql-1" edge="1">
          <mxGeometry relative="1" as="geometry" />
        </mxCell>
        <mxCell id="51BZH1mfJ3p3SiwEqMql-11" value="(1,1)" style="edgeStyle=orthogonalEdgeStyle;rounded=0;orthogonalLoop=1;jettySize=auto;html=1;exitX=0.5;exitY=1;exitDx=0;exitDy=0;entryX=0.5;entryY=0;entryDx=0;entryDy=0;" parent="1" source="51BZH1mfJ3p3SiwEqMql-9" target="51BZH1mfJ3p3SiwEqMql-1" edge="1">
          <mxGeometry relative="1" as="geometry" />
        </mxCell>
        <mxCell id="OIFnNaqnoantYKEcp4GL-8" style="edgeStyle=orthogonalEdgeStyle;rounded=0;orthogonalLoop=1;jettySize=auto;html=1;exitX=0.5;exitY=0;exitDx=0;exitDy=0;entryX=0.25;entryY=0;entryDx=0;entryDy=0;" edge="1" parent="1" source="51BZH1mfJ3p3SiwEqMql-9" target="moOu8SUinzSFJMRD1ueo-2">
          <mxGeometry relative="1" as="geometry" />
        </mxCell>
        <mxCell id="OIFnNaqnoantYKEcp4GL-9" value="(0,N)" style="edgeLabel;html=1;align=center;verticalAlign=middle;resizable=0;points=[];" vertex="1" connectable="0" parent="OIFnNaqnoantYKEcp4GL-8">
          <mxGeometry x="-0.8077" y="-4" relative="1" as="geometry">
            <mxPoint as="offset" />
          </mxGeometry>
        </mxCell>
        <mxCell id="51BZH1mfJ3p3SiwEqMql-9" value="Thuoc" style="rhombus;whiteSpace=wrap;html=1;" parent="1" vertex="1">
          <mxGeometry x="-730" y="730" width="150" height="40" as="geometry" />
        </mxCell>
        <mxCell id="51BZH1mfJ3p3SiwEqMql-24" style="edgeStyle=orthogonalEdgeStyle;rounded=0;orthogonalLoop=1;jettySize=auto;html=1;exitX=0.5;exitY=0;exitDx=0;exitDy=0;entryX=1;entryY=0.5;entryDx=0;entryDy=0;" parent="1" source="51BZH1mfJ3p3SiwEqMql-19" target="51BZH1mfJ3p3SiwEqMql-20" edge="1">
          <mxGeometry relative="1" as="geometry" />
        </mxCell>
        <mxCell id="eYvVQva_daUCcq3rvcuf-1" value="(1,N)" style="edgeLabel;html=1;align=center;verticalAlign=middle;resizable=0;points=[];" parent="51BZH1mfJ3p3SiwEqMql-24" vertex="1" connectable="0">
          <mxGeometry x="0.6476" y="5" relative="1" as="geometry">
            <mxPoint as="offset" />
          </mxGeometry>
        </mxCell>
        <mxCell id="51BZH1mfJ3p3SiwEqMql-19" value="DAIDIENCHOVAY" style="rounded=0;whiteSpace=wrap;html=1;" parent="1" vertex="1">
          <mxGeometry x="510" y="70" width="120" height="60" as="geometry" />
        </mxCell>
        <mxCell id="51BZH1mfJ3p3SiwEqMql-25" style="edgeStyle=orthogonalEdgeStyle;rounded=0;orthogonalLoop=1;jettySize=auto;html=1;exitX=0;exitY=0.5;exitDx=0;exitDy=0;" parent="1" source="51BZH1mfJ3p3SiwEqMql-20" target="moOu8SUinzSFJMRD1ueo-2" edge="1">
          <mxGeometry relative="1" as="geometry" />
        </mxCell>
        <mxCell id="eYvVQva_daUCcq3rvcuf-2" value="(1,1)" style="edgeLabel;html=1;align=center;verticalAlign=middle;resizable=0;points=[];" parent="51BZH1mfJ3p3SiwEqMql-25" vertex="1" connectable="0">
          <mxGeometry x="-0.5214" y="4" relative="1" as="geometry">
            <mxPoint as="offset" />
          </mxGeometry>
        </mxCell>
        <mxCell id="51BZH1mfJ3p3SiwEqMql-20" value="CHOVAY" style="rhombus;whiteSpace=wrap;html=1;" parent="1" vertex="1">
          <mxGeometry x="290" y="30" width="90" height="40" as="geometry" />
        </mxCell>
        <mxCell id="xY4OVWo1dw9h_iWOuXFk-1" value="HinhThucThanhToan" style="ellipse;whiteSpace=wrap;html=1;" parent="1" vertex="1">
          <mxGeometry x="-220" y="530" width="120" height="30" as="geometry" />
        </mxCell>
        <mxCell id="xY4OVWo1dw9h_iWOuXFk-4" style="edgeStyle=orthogonalEdgeStyle;rounded=0;orthogonalLoop=1;jettySize=auto;html=1;exitX=0;exitY=0;exitDx=0;exitDy=0;entryX=0.89;entryY=1.003;entryDx=0;entryDy=0;entryPerimeter=0;" parent="1" source="xY4OVWo1dw9h_iWOuXFk-1" target="moOu8SUinzSFJMRD1ueo-57" edge="1">
          <mxGeometry relative="1" as="geometry" />
        </mxCell>
        <mxCell id="xY4OVWo1dw9h_iWOuXFk-10" style="edgeStyle=orthogonalEdgeStyle;rounded=0;orthogonalLoop=1;jettySize=auto;html=1;exitX=1;exitY=0.5;exitDx=0;exitDy=0;entryX=0;entryY=0.75;entryDx=0;entryDy=0;" parent="1" source="xY4OVWo1dw9h_iWOuXFk-8" target="moOu8SUinzSFJMRD1ueo-1" edge="1">
          <mxGeometry relative="1" as="geometry" />
        </mxCell>
        <mxCell id="xY4OVWo1dw9h_iWOuXFk-8" value="SDT" style="ellipse;whiteSpace=wrap;html=1;" parent="1" vertex="1">
          <mxGeometry x="-540" y="380" width="120" height="40" as="geometry" />
        </mxCell>
        <mxCell id="xY4OVWo1dw9h_iWOuXFk-11" style="edgeStyle=orthogonalEdgeStyle;rounded=0;orthogonalLoop=1;jettySize=auto;html=1;exitX=0;exitY=0;exitDx=0;exitDy=0;entryX=0.25;entryY=1;entryDx=0;entryDy=0;" parent="1" source="xY4OVWo1dw9h_iWOuXFk-9" target="moOu8SUinzSFJMRD1ueo-1" edge="1">
          <mxGeometry relative="1" as="geometry" />
        </mxCell>
        <mxCell id="xY4OVWo1dw9h_iWOuXFk-9" value="CCCD" style="ellipse;whiteSpace=wrap;html=1;" parent="1" vertex="1">
          <mxGeometry x="-330" y="380" width="120" height="40" as="geometry" />
        </mxCell>
        <mxCell id="OIFnNaqnoantYKEcp4GL-11" style="edgeStyle=orthogonalEdgeStyle;rounded=0;orthogonalLoop=1;jettySize=auto;html=1;exitX=0;exitY=0.5;exitDx=0;exitDy=0;entryX=0.75;entryY=1;entryDx=0;entryDy=0;" edge="1" parent="1" source="xY4OVWo1dw9h_iWOuXFk-7" target="moOu8SUinzSFJMRD1ueo-2">
          <mxGeometry relative="1" as="geometry" />
        </mxCell>
        <mxCell id="xY4OVWo1dw9h_iWOuXFk-7" value="TrangThaiHopDong" style="ellipse;whiteSpace=wrap;html=1;" parent="1" vertex="1">
          <mxGeometry x="220" y="300" width="120" height="50" as="geometry" />
        </mxCell>
        <mxCell id="xY4OVWo1dw9h_iWOuXFk-15" style="edgeStyle=orthogonalEdgeStyle;rounded=0;orthogonalLoop=1;jettySize=auto;html=1;exitX=0;exitY=0.5;exitDx=0;exitDy=0;entryX=0.75;entryY=0;entryDx=0;entryDy=0;" parent="1" source="xY4OVWo1dw9h_iWOuXFk-14" target="moOu8SUinzSFJMRD1ueo-6" edge="1">
          <mxGeometry relative="1" as="geometry" />
        </mxCell>
        <mxCell id="xY4OVWo1dw9h_iWOuXFk-14" value="&lt;b&gt;&lt;u&gt;MANV&lt;/u&gt;&lt;/b&gt;" style="ellipse;whiteSpace=wrap;html=1;" parent="1" vertex="1">
          <mxGeometry x="425" y="430" width="120" height="40" as="geometry" />
        </mxCell>
        <mxCell id="xY4OVWo1dw9h_iWOuXFk-25" style="edgeStyle=orthogonalEdgeStyle;rounded=0;orthogonalLoop=1;jettySize=auto;html=1;exitX=1;exitY=0.5;exitDx=0;exitDy=0;entryX=0;entryY=1;entryDx=0;entryDy=0;" parent="1" source="xY4OVWo1dw9h_iWOuXFk-16" target="51BZH1mfJ3p3SiwEqMql-1" edge="1">
          <mxGeometry relative="1" as="geometry" />
        </mxCell>
        <mxCell id="xY4OVWo1dw9h_iWOuXFk-16" value="LoaiNo" style="ellipse;whiteSpace=wrap;html=1;" parent="1" vertex="1">
          <mxGeometry x="-610" y="940" width="120" height="40" as="geometry" />
        </mxCell>
        <mxCell id="xY4OVWo1dw9h_iWOuXFk-30" style="edgeStyle=orthogonalEdgeStyle;rounded=0;orthogonalLoop=1;jettySize=auto;html=1;exitX=0;exitY=0.5;exitDx=0;exitDy=0;entryX=1;entryY=1;entryDx=0;entryDy=0;" parent="1" source="xY4OVWo1dw9h_iWOuXFk-18" target="51BZH1mfJ3p3SiwEqMql-1" edge="1">
          <mxGeometry relative="1" as="geometry" />
        </mxCell>
        <mxCell id="xY4OVWo1dw9h_iWOuXFk-18" value="TrangThaiNo" style="ellipse;whiteSpace=wrap;html=1;" parent="1" vertex="1">
          <mxGeometry x="-280" y="900" width="120" height="50" as="geometry" />
        </mxCell>
        <mxCell id="xY4OVWo1dw9h_iWOuXFk-26" style="edgeStyle=orthogonalEdgeStyle;rounded=0;orthogonalLoop=1;jettySize=auto;html=1;exitX=1;exitY=0.5;exitDx=0;exitDy=0;entryX=0.25;entryY=1;entryDx=0;entryDy=0;" parent="1" source="xY4OVWo1dw9h_iWOuXFk-22" target="51BZH1mfJ3p3SiwEqMql-1" edge="1">
          <mxGeometry relative="1" as="geometry" />
        </mxCell>
        <mxCell id="xY4OVWo1dw9h_iWOuXFk-22" value="Ngay Mac No" style="ellipse;whiteSpace=wrap;html=1;" parent="1" vertex="1">
          <mxGeometry x="-610" y="1000" width="120" height="55" as="geometry" />
        </mxCell>
        <mxCell id="xY4OVWo1dw9h_iWOuXFk-29" style="edgeStyle=orthogonalEdgeStyle;rounded=0;orthogonalLoop=1;jettySize=auto;html=1;exitX=0;exitY=0.5;exitDx=0;exitDy=0;entryX=1;entryY=0.5;entryDx=0;entryDy=0;" parent="1" source="xY4OVWo1dw9h_iWOuXFk-24" target="51BZH1mfJ3p3SiwEqMql-1" edge="1">
          <mxGeometry relative="1" as="geometry" />
        </mxCell>
        <mxCell id="xY4OVWo1dw9h_iWOuXFk-24" value="NgayDaoHan" style="ellipse;whiteSpace=wrap;html=1;" parent="1" vertex="1">
          <mxGeometry x="-280" y="843" width="120" height="51.5" as="geometry" />
        </mxCell>
        <mxCell id="OIFnNaqnoantYKEcp4GL-10" style="edgeStyle=orthogonalEdgeStyle;rounded=0;orthogonalLoop=1;jettySize=auto;html=1;exitX=0;exitY=0.5;exitDx=0;exitDy=0;entryX=1;entryY=1;entryDx=0;entryDy=0;" edge="1" parent="1" source="xY4OVWo1dw9h_iWOuXFk-31" target="moOu8SUinzSFJMRD1ueo-2">
          <mxGeometry relative="1" as="geometry" />
        </mxCell>
        <mxCell id="xY4OVWo1dw9h_iWOuXFk-31" value="NgayDaoHan" style="ellipse;whiteSpace=wrap;html=1;" parent="1" vertex="1">
          <mxGeometry x="220" y="240" width="120" height="50" as="geometry" />
        </mxCell>
        <mxCell id="OIFnNaqnoantYKEcp4GL-1" style="edgeStyle=orthogonalEdgeStyle;rounded=0;orthogonalLoop=1;jettySize=auto;html=1;exitX=0;exitY=0.5;exitDx=0;exitDy=0;" edge="1" parent="1" source="xY4OVWo1dw9h_iWOuXFk-35" target="moOu8SUinzSFJMRD1ueo-6">
          <mxGeometry relative="1" as="geometry" />
        </mxCell>
        <mxCell id="xY4OVWo1dw9h_iWOuXFk-35" value="HoTen" style="ellipse;whiteSpace=wrap;html=1;" parent="1" vertex="1">
          <mxGeometry x="425" y="490" width="120" height="40" as="geometry" />
        </mxCell>
        <mxCell id="xY4OVWo1dw9h_iWOuXFk-36" value="DiaChi" style="ellipse;whiteSpace=wrap;html=1;" parent="1" vertex="1">
          <mxGeometry x="425" y="550" width="120" height="40" as="geometry" />
        </mxCell>
        <mxCell id="OIFnNaqnoantYKEcp4GL-4" style="edgeStyle=orthogonalEdgeStyle;rounded=0;orthogonalLoop=1;jettySize=auto;html=1;exitX=0;exitY=0.5;exitDx=0;exitDy=0;entryX=0.75;entryY=1;entryDx=0;entryDy=0;" edge="1" parent="1" source="xY4OVWo1dw9h_iWOuXFk-37" target="moOu8SUinzSFJMRD1ueo-6">
          <mxGeometry relative="1" as="geometry" />
        </mxCell>
        <mxCell id="xY4OVWo1dw9h_iWOuXFk-37" value="SDT" style="ellipse;whiteSpace=wrap;html=1;" parent="1" vertex="1">
          <mxGeometry x="430" y="610" width="120" height="30" as="geometry" />
        </mxCell>
        <mxCell id="xY4OVWo1dw9h_iWOuXFk-38" value="Email" style="ellipse;whiteSpace=wrap;html=1;" parent="1" vertex="1">
          <mxGeometry x="430" y="660" width="120" height="30" as="geometry" />
        </mxCell>
        <mxCell id="OIFnNaqnoantYKEcp4GL-6" style="edgeStyle=orthogonalEdgeStyle;rounded=0;orthogonalLoop=1;jettySize=auto;html=1;exitX=0;exitY=0.5;exitDx=0;exitDy=0;" edge="1" parent="1" source="xY4OVWo1dw9h_iWOuXFk-39" target="moOu8SUinzSFJMRD1ueo-6">
          <mxGeometry relative="1" as="geometry" />
        </mxCell>
        <mxCell id="xY4OVWo1dw9h_iWOuXFk-39" value="ChucVu" style="ellipse;whiteSpace=wrap;html=1;" parent="1" vertex="1">
          <mxGeometry x="430" y="710" width="120" height="30" as="geometry" />
        </mxCell>
        <mxCell id="xY4OVWo1dw9h_iWOuXFk-46" style="edgeStyle=orthogonalEdgeStyle;rounded=0;orthogonalLoop=1;jettySize=auto;html=1;exitX=0;exitY=0.5;exitDx=0;exitDy=0;" parent="1" source="xY4OVWo1dw9h_iWOuXFk-40" target="51BZH1mfJ3p3SiwEqMql-19" edge="1">
          <mxGeometry relative="1" as="geometry" />
        </mxCell>
        <mxCell id="xY4OVWo1dw9h_iWOuXFk-40" value="&lt;b&gt;&lt;u&gt;MADaiDien&lt;/u&gt;&lt;/b&gt;" style="ellipse;whiteSpace=wrap;html=1;" parent="1" vertex="1">
          <mxGeometry x="680" y="80" width="120" height="40" as="geometry" />
        </mxCell>
        <mxCell id="xY4OVWo1dw9h_iWOuXFk-47" style="edgeStyle=orthogonalEdgeStyle;rounded=0;orthogonalLoop=1;jettySize=auto;html=1;exitX=0;exitY=0.5;exitDx=0;exitDy=0;entryX=1;entryY=0.75;entryDx=0;entryDy=0;" parent="1" source="xY4OVWo1dw9h_iWOuXFk-41" target="51BZH1mfJ3p3SiwEqMql-19" edge="1">
          <mxGeometry relative="1" as="geometry" />
        </mxCell>
        <mxCell id="xY4OVWo1dw9h_iWOuXFk-41" value="NganHang" style="ellipse;whiteSpace=wrap;html=1;" parent="1" vertex="1">
          <mxGeometry x="680" y="150" width="120" height="40" as="geometry" />
        </mxCell>
        <mxCell id="xY4OVWo1dw9h_iWOuXFk-48" style="edgeStyle=orthogonalEdgeStyle;rounded=0;orthogonalLoop=1;jettySize=auto;html=1;exitX=0;exitY=0.5;exitDx=0;exitDy=0;entryX=1;entryY=1;entryDx=0;entryDy=0;" parent="1" source="xY4OVWo1dw9h_iWOuXFk-42" target="51BZH1mfJ3p3SiwEqMql-19" edge="1">
          <mxGeometry relative="1" as="geometry" />
        </mxCell>
        <mxCell id="xY4OVWo1dw9h_iWOuXFk-42" value="ChiNhanh" style="ellipse;whiteSpace=wrap;html=1;" parent="1" vertex="1">
          <mxGeometry x="680" y="210" width="120" height="40" as="geometry" />
        </mxCell>
        <mxCell id="xY4OVWo1dw9h_iWOuXFk-49" style="edgeStyle=orthogonalEdgeStyle;rounded=0;orthogonalLoop=1;jettySize=auto;html=1;exitX=0;exitY=0.5;exitDx=0;exitDy=0;entryX=0.75;entryY=1;entryDx=0;entryDy=0;" parent="1" source="xY4OVWo1dw9h_iWOuXFk-43" target="51BZH1mfJ3p3SiwEqMql-19" edge="1">
          <mxGeometry relative="1" as="geometry" />
        </mxCell>
        <mxCell id="xY4OVWo1dw9h_iWOuXFk-43" value="SDT" style="ellipse;whiteSpace=wrap;html=1;" parent="1" vertex="1">
          <mxGeometry x="685" y="270" width="120" height="30" as="geometry" />
        </mxCell>
        <mxCell id="xY4OVWo1dw9h_iWOuXFk-50" style="edgeStyle=orthogonalEdgeStyle;rounded=0;orthogonalLoop=1;jettySize=auto;html=1;exitX=0;exitY=0.5;exitDx=0;exitDy=0;entryX=0.5;entryY=1;entryDx=0;entryDy=0;" parent="1" source="xY4OVWo1dw9h_iWOuXFk-44" target="51BZH1mfJ3p3SiwEqMql-19" edge="1">
          <mxGeometry relative="1" as="geometry" />
        </mxCell>
        <mxCell id="xY4OVWo1dw9h_iWOuXFk-44" value="DiaChi" style="ellipse;whiteSpace=wrap;html=1;" parent="1" vertex="1">
          <mxGeometry x="685" y="320" width="120" height="30" as="geometry" />
        </mxCell>
        <mxCell id="xY4OVWo1dw9h_iWOuXFk-53" style="edgeStyle=orthogonalEdgeStyle;rounded=0;orthogonalLoop=1;jettySize=auto;html=1;exitX=0;exitY=0.5;exitDx=0;exitDy=0;entryX=0.25;entryY=1;entryDx=0;entryDy=0;" parent="1" source="xY4OVWo1dw9h_iWOuXFk-51" target="51BZH1mfJ3p3SiwEqMql-19" edge="1">
          <mxGeometry relative="1" as="geometry" />
        </mxCell>
        <mxCell id="xY4OVWo1dw9h_iWOuXFk-51" value="TenNguoiDaiDien" style="ellipse;whiteSpace=wrap;html=1;" parent="1" vertex="1">
          <mxGeometry x="680" y="380" width="120" height="40" as="geometry" />
        </mxCell>
        <mxCell id="xY4OVWo1dw9h_iWOuXFk-52" value="ChucVu" style="ellipse;whiteSpace=wrap;html=1;" parent="1" vertex="1">
          <mxGeometry x="685" y="450" width="120" height="40" as="geometry" />
        </mxCell>
        <mxCell id="xY4OVWo1dw9h_iWOuXFk-54" style="edgeStyle=orthogonalEdgeStyle;rounded=0;orthogonalLoop=1;jettySize=auto;html=1;exitX=0;exitY=0.5;exitDx=0;exitDy=0;entryX=0.676;entryY=1.1;entryDx=0;entryDy=0;entryPerimeter=0;" parent="1" source="xY4OVWo1dw9h_iWOuXFk-52" target="51BZH1mfJ3p3SiwEqMql-19" edge="1">
          <mxGeometry relative="1" as="geometry" />
        </mxCell>
        <mxCell id="xY4OVWo1dw9h_iWOuXFk-59" style="edgeStyle=orthogonalEdgeStyle;rounded=0;orthogonalLoop=1;jettySize=auto;html=1;exitX=0;exitY=0.5;exitDx=0;exitDy=0;entryX=0.588;entryY=1.048;entryDx=0;entryDy=0;entryPerimeter=0;" parent="1" source="xY4OVWo1dw9h_iWOuXFk-55" target="xY4OVWo1dw9h_iWOuXFk-60" edge="1">
          <mxGeometry relative="1" as="geometry">
            <mxPoint x="-30" y="620" as="targetPoint" />
          </mxGeometry>
        </mxCell>
        <mxCell id="xY4OVWo1dw9h_iWOuXFk-55" value="MoTa" style="ellipse;whiteSpace=wrap;html=1;" parent="1" vertex="1">
          <mxGeometry x="140" y="845" width="120" height="35" as="geometry" />
        </mxCell>
        <mxCell id="xY4OVWo1dw9h_iWOuXFk-61" style="edgeStyle=orthogonalEdgeStyle;rounded=0;orthogonalLoop=1;jettySize=auto;html=1;exitX=0;exitY=0.5;exitDx=0;exitDy=0;entryX=0.25;entryY=1;entryDx=0;entryDy=0;" parent="1" source="xY4OVWo1dw9h_iWOuXFk-56" target="xY4OVWo1dw9h_iWOuXFk-60" edge="1">
          <mxGeometry relative="1" as="geometry" />
        </mxCell>
        <mxCell id="xY4OVWo1dw9h_iWOuXFk-56" value="ThoiHan" style="ellipse;whiteSpace=wrap;html=1;" parent="1" vertex="1">
          <mxGeometry x="140" y="895" width="120" height="40" as="geometry" />
        </mxCell>
        <mxCell id="xY4OVWo1dw9h_iWOuXFk-62" style="edgeStyle=orthogonalEdgeStyle;rounded=0;orthogonalLoop=1;jettySize=auto;html=1;exitX=0;exitY=0.5;exitDx=0;exitDy=0;entryX=0.75;entryY=1;entryDx=0;entryDy=0;" parent="1" source="xY4OVWo1dw9h_iWOuXFk-57" target="xY4OVWo1dw9h_iWOuXFk-60" edge="1">
          <mxGeometry relative="1" as="geometry" />
        </mxCell>
        <mxCell id="xY4OVWo1dw9h_iWOuXFk-57" value="SoTienToiDa" style="ellipse;whiteSpace=wrap;html=1;" parent="1" vertex="1">
          <mxGeometry x="140" y="955" width="120" height="30" as="geometry" />
        </mxCell>
        <mxCell id="xY4OVWo1dw9h_iWOuXFk-58" value="SoTienToiThieu" style="ellipse;whiteSpace=wrap;html=1;" parent="1" vertex="1">
          <mxGeometry x="140" y="1005" width="120" height="40" as="geometry" />
        </mxCell>
        <mxCell id="xY4OVWo1dw9h_iWOuXFk-66" style="edgeStyle=orthogonalEdgeStyle;rounded=0;orthogonalLoop=1;jettySize=auto;html=1;exitX=0.5;exitY=0;exitDx=0;exitDy=0;entryX=0.5;entryY=1;entryDx=0;entryDy=0;" parent="1" source="xY4OVWo1dw9h_iWOuXFk-60" target="xY4OVWo1dw9h_iWOuXFk-65" edge="1">
          <mxGeometry relative="1" as="geometry" />
        </mxCell>
        <mxCell id="xY4OVWo1dw9h_iWOuXFk-68" value="(1,N)" style="edgeLabel;html=1;align=center;verticalAlign=middle;resizable=0;points=[];" parent="xY4OVWo1dw9h_iWOuXFk-66" vertex="1" connectable="0">
          <mxGeometry x="0.1429" relative="1" as="geometry">
            <mxPoint as="offset" />
          </mxGeometry>
        </mxCell>
        <mxCell id="xY4OVWo1dw9h_iWOuXFk-60" value="GoiVay" style="rounded=0;whiteSpace=wrap;html=1;" parent="1" vertex="1">
          <mxGeometry x="-100" y="580" width="120" height="60" as="geometry" />
        </mxCell>
        <mxCell id="xY4OVWo1dw9h_iWOuXFk-63" style="edgeStyle=orthogonalEdgeStyle;rounded=0;orthogonalLoop=1;jettySize=auto;html=1;exitX=0;exitY=0.5;exitDx=0;exitDy=0;entryX=0.426;entryY=1.048;entryDx=0;entryDy=0;entryPerimeter=0;" parent="1" source="xY4OVWo1dw9h_iWOuXFk-58" target="xY4OVWo1dw9h_iWOuXFk-60" edge="1">
          <mxGeometry relative="1" as="geometry" />
        </mxCell>
        <mxCell id="xY4OVWo1dw9h_iWOuXFk-67" style="edgeStyle=orthogonalEdgeStyle;rounded=0;orthogonalLoop=1;jettySize=auto;html=1;exitX=1;exitY=0.5;exitDx=0;exitDy=0;entryX=-0.006;entryY=0.878;entryDx=0;entryDy=0;entryPerimeter=0;" parent="1" source="xY4OVWo1dw9h_iWOuXFk-65" target="moOu8SUinzSFJMRD1ueo-2" edge="1">
          <mxGeometry relative="1" as="geometry" />
        </mxCell>
        <mxCell id="xY4OVWo1dw9h_iWOuXFk-69" value="(1,1)" style="edgeLabel;html=1;align=center;verticalAlign=middle;resizable=0;points=[];" parent="xY4OVWo1dw9h_iWOuXFk-67" vertex="1" connectable="0">
          <mxGeometry x="-0.229" y="-1" relative="1" as="geometry">
            <mxPoint y="-1" as="offset" />
          </mxGeometry>
        </mxCell>
        <mxCell id="xY4OVWo1dw9h_iWOuXFk-65" value="Thuộc" style="rhombus;whiteSpace=wrap;html=1;" parent="1" vertex="1">
          <mxGeometry x="-100" y="510" width="120" height="40" as="geometry" />
        </mxCell>
        <mxCell id="OIFnNaqnoantYKEcp4GL-3" style="edgeStyle=orthogonalEdgeStyle;rounded=0;orthogonalLoop=1;jettySize=auto;html=1;exitX=0;exitY=0.5;exitDx=0;exitDy=0;entryX=0.93;entryY=1.037;entryDx=0;entryDy=0;entryPerimeter=0;" edge="1" parent="1" source="xY4OVWo1dw9h_iWOuXFk-36" target="moOu8SUinzSFJMRD1ueo-6">
          <mxGeometry relative="1" as="geometry" />
        </mxCell>
        <mxCell id="OIFnNaqnoantYKEcp4GL-5" style="edgeStyle=orthogonalEdgeStyle;rounded=0;orthogonalLoop=1;jettySize=auto;html=1;exitX=0;exitY=0.5;exitDx=0;exitDy=0;entryX=0.617;entryY=1.01;entryDx=0;entryDy=0;entryPerimeter=0;" edge="1" parent="1" source="xY4OVWo1dw9h_iWOuXFk-38" target="moOu8SUinzSFJMRD1ueo-6">
          <mxGeometry relative="1" as="geometry" />
        </mxCell>
        <mxCell id="OIFnNaqnoantYKEcp4GL-12" style="edgeStyle=orthogonalEdgeStyle;rounded=0;orthogonalLoop=1;jettySize=auto;html=1;exitX=1;exitY=0.5;exitDx=0;exitDy=0;entryX=-0.007;entryY=0.624;entryDx=0;entryDy=0;entryPerimeter=0;" edge="1" parent="1" source="moOu8SUinzSFJMRD1ueo-82" target="moOu8SUinzSFJMRD1ueo-57">
          <mxGeometry relative="1" as="geometry" />
        </mxCell>
        <mxCell id="OIFnNaqnoantYKEcp4GL-13" value="KyTinhLai" style="ellipse;whiteSpace=wrap;html=1;" vertex="1" parent="1">
          <mxGeometry x="140" y="1065" width="120" height="35" as="geometry" />
        </mxCell>
        <mxCell id="OIFnNaqnoantYKEcp4GL-14" style="edgeStyle=orthogonalEdgeStyle;rounded=0;orthogonalLoop=1;jettySize=auto;html=1;exitX=0;exitY=0.5;exitDx=0;exitDy=0;entryX=0.1;entryY=1.021;entryDx=0;entryDy=0;entryPerimeter=0;" edge="1" parent="1" source="OIFnNaqnoantYKEcp4GL-13" target="xY4OVWo1dw9h_iWOuXFk-60">
          <mxGeometry relative="1" as="geometry" />
        </mxCell>
        <mxCell id="OIFnNaqnoantYKEcp4GL-15" value="HinhThucVay" style="ellipse;whiteSpace=wrap;html=1;" vertex="1" parent="1">
          <mxGeometry x="220" y="380" width="120" height="40" as="geometry" />
        </mxCell>
        <mxCell id="OIFnNaqnoantYKEcp4GL-16" style="edgeStyle=orthogonalEdgeStyle;rounded=0;orthogonalLoop=1;jettySize=auto;html=1;exitX=0;exitY=0.5;exitDx=0;exitDy=0;entryX=0.858;entryY=0.987;entryDx=0;entryDy=0;entryPerimeter=0;" edge="1" parent="1" source="OIFnNaqnoantYKEcp4GL-15" target="moOu8SUinzSFJMRD1ueo-2">
          <mxGeometry relative="1" as="geometry" />
        </mxCell>
        <mxCell id="OIFnNaqnoantYKEcp4GL-17" value="SoTienGoc" style="ellipse;whiteSpace=wrap;html=1;" vertex="1" parent="1">
          <mxGeometry x="-570" y="690" width="120" height="35" as="geometry" />
        </mxCell>
        <mxCell id="OIFnNaqnoantYKEcp4GL-18" value="SoTienLai" style="ellipse;whiteSpace=wrap;html=1;" vertex="1" parent="1">
          <mxGeometry x="-220" y="670" width="120" height="35" as="geometry" />
        </mxCell>
        <mxCell id="OIFnNaqnoantYKEcp4GL-19" style="edgeStyle=orthogonalEdgeStyle;rounded=0;orthogonalLoop=1;jettySize=auto;html=1;exitX=1;exitY=0.5;exitDx=0;exitDy=0;entryX=0.392;entryY=0.987;entryDx=0;entryDy=0;entryPerimeter=0;" edge="1" parent="1" source="OIFnNaqnoantYKEcp4GL-17" target="moOu8SUinzSFJMRD1ueo-57">
          <mxGeometry relative="1" as="geometry" />
        </mxCell>
        <mxCell id="OIFnNaqnoantYKEcp4GL-21" style="edgeStyle=orthogonalEdgeStyle;rounded=0;orthogonalLoop=1;jettySize=auto;html=1;exitX=0;exitY=0.5;exitDx=0;exitDy=0;entryX=0.667;entryY=1.054;entryDx=0;entryDy=0;entryPerimeter=0;" edge="1" parent="1" source="OIFnNaqnoantYKEcp4GL-18" target="moOu8SUinzSFJMRD1ueo-57">
          <mxGeometry relative="1" as="geometry" />
        </mxCell>
        <mxCell id="OIFnNaqnoantYKEcp4GL-22" value="NgayVay" style="ellipse;whiteSpace=wrap;html=1;" vertex="1" parent="1">
          <mxGeometry x="-110" y="380" width="120" height="30" as="geometry" />
        </mxCell>
        <mxCell id="OIFnNaqnoantYKEcp4GL-25" style="edgeStyle=orthogonalEdgeStyle;rounded=0;orthogonalLoop=1;jettySize=auto;html=1;exitX=0.5;exitY=0;exitDx=0;exitDy=0;entryX=0.64;entryY=0.667;entryDx=0;entryDy=0;entryPerimeter=0;" edge="1" parent="1" source="OIFnNaqnoantYKEcp4GL-22" target="moOu8SUinzSFJMRD1ueo-29">
          <mxGeometry relative="1" as="geometry" />
        </mxCell>
      </root>
    </mxGraphModel>
  </diagram>
</mxfile>
